<svg width="100" height="100" xmlns="http://www.w3.org/2000/svg">
  <defs>
    <pattern id="chinesePattern" x="0" y="0" width="100" height="100" patternUnits="userSpaceOnUse">
      <!-- 雲紋圖案 -->
      <circle cx="20" cy="20" r="3" fill="rgba(200, 180, 160, 0.1)"/>
      <circle cx="80" cy="30" r="4" fill="rgba(200, 180, 160, 0.08)"/>
      <circle cx="50" cy="70" r="3.5" fill="rgba(200, 180, 160, 0.1)"/>
      <!-- 簡化的龍紋線條 -->
      <path d="M 10 50 Q 30 40, 50 50 T 90 50" stroke="rgba(200, 180, 160, 0.15)" stroke-width="1" fill="none"/>
      <path d="M 15 60 Q 35 55, 55 60 T 85 60" stroke="rgba(200, 180, 160, 0.12)" stroke-width="0.8" fill="none"/>
      <!-- 祥雲圖案 -->
      <path d="M 40 15 Q 45 10, 50 15 Q 55 10, 60 15 Q 55 20, 50 15 Q 45 20, 40 15" fill="rgba(200, 180, 160, 0.1)"/>
      <path d="M 70 65 Q 75 60, 80 65 Q 85 60, 90 65 Q 85 70, 80 65 Q 75 70, 70 65" fill="rgba(200, 180, 160, 0.1)"/>
    </pattern>
  </defs>
</svg>

